PathFileType	4	(X/Y/Z)
DataRate	CameraRate	NumFrames	NumMarkers	Units	OrigDataRate	OrigDataStartFrame	OrigNumFrames	
	120.0	120.0	10	39	mm	120.0	14	104
Frame#	Time	midhip	hip_r	hip_l	knee_r	knee_l	ankle_r	ankle_l	midasis	asis_r	asis_l	psis_r	psis_l	epicondLat_r	epicondLat_l	epicondMed_r	epicondMed_l	malleolusLat_r	malleolusLat_l	malleolusMedv_r	malleolusMedv_l	heel_r	heel_l	sternalnotch	xyphoidprocess	neck	subclavicle_r	subclavicle_l	toe_r	toe_l	thighwand_r	thighwand_l	upperleg1_r	upperleg1_l	upperleg2_r	upperleg2_l	shankwand_r	shankwand_l	lowerleg1_r	lowerleg1_l
	X1	Y1	Z1	X2	Y2	Z2	X3	Y3	Z3	X4	Y4	Z4	X5	Y5	Z5	X6	Y6	Z6	X7	Y7	Z7	X8	Y8	Z8	X9	Y9	Z9	X10	Y10	Z10	X11	Y11	Z11	X12	Y12	Z12	X13	Y13	Z13	X14	Y14	Z14	X15	Y15	Z15	X16	Y16	Z16	X17	Y17	Z17	X18	Y18	Z18	X19	Y19	Z19	X20	Y20	Z20	X21	Y21	Z21	X22	Y22	Z22	X23	Y23	Z23	X24	Y24	Z24	X25	Y25	Z25	X26	Y26	Z26	X27	Y27	Z27	X28	Y28	Z28	X29	Y29	Z29	X30	Y30	Z30	X31	Y31	Z31	X32	Y32	Z32	X33	Y33	Z33	X34	Y34	Z34	X35	Y35	Z35	X36	Y36	Z36	X37	Y37	Z37	X38	Y38	Z38	X39	Y39	Z39

	14	0.11667	1479.689	905.572	-250.449	1466.467	879.551	-176.748	1472.647	883.491	-326.999	1442.617	469.894	-134.254	1432.214	461.119	-352.941	1406.425	69.779	-130.677	1383.752	71.061	-363.247	1565.814	959.615	-245.866	1560.918	956.493	-126.810	1570.711	962.736	-364.922	1381.624	1017.851	-220.353	1387.908	1016.901	-305.697	1451.933	475.525	-74.741	1440.369	463.985	-412.315	1427.575	475.916	-182.752	1426.815	466.034	-301.477	1391.045	71.519	-91.634	1365.029	74.347	-399.574	1415.565	83.353	-157.819	1390.928	83.448	-338.250	1342.802	42.620	-143.955	1317.572	42.961	-352.101	1487.614	1370.132	-234.167	1569.812	1206.595	-244.598	1375.119	1436.784	-239.199	1498.300	1359.382	-181.804	1511.471	1365.087	-288.961	1525.650	39.292	-99.638	1500.498	41.165	-401.762	1506.444	591.194	-9.383	1596.321	552.943	-341.418	1522.483	650.781	-82.217	1534.977	618.596	-381.337	1513.859	563.299	-96.954	1508.293	535.493	-385.215	1417.736	204.887	-5.491	1405.995	211.988	-479.345	1406.140	172.086	-77.926	1385.130	173.889	-410.527
	15	0.12500	1479.616	905.515	-250.509	1466.461	879.570	-176.750	1472.673	883.480	-327.000	1442.636	469.927	-134.229	1432.150	461.120	-352.944	1406.416	69.783	-130.653	1383.728	71.075	-363.242	1565.800	959.648	-245.864	1560.877	956.549	-126.787	1570.723	962.747	-364.940	1381.586	1017.820	-220.327	1387.878	1016.889	-305.784	1451.989	475.560	-74.723	1440.332	463.982	-412.315	1427.496	475.878	-182.604	1426.850	465.981	-301.731	1391.059	71.523	-91.600	1365.021	74.356	-399.578	1415.529	83.269	-157.901	1390.850	83.302	-338.244	1342.802	42.633	-143.970	1317.595	42.982	-352.120	1487.457	1370.096	-234.206	1569.705	1206.581	-244.593	1374.802	1436.801	-239.319	1498.130	1359.355	-181.892	1511.332	1365.052	-288.936	1525.624	39.330	-99.671	1500.504	41.171	-401.759	1506.435	591.252	-9.427	1596.333	552.960	-341.441	1522.467	650.831	-82.298	1535.063	618.688	-381.324	1513.824	563.351	-96.930	1508.379	535.514	-385.321	1417.778	204.916	-5.506	1405.974	211.948	-479.367	1405.979	172.001	-78.021	1385.086	173.683	-410.544
	16	0.13333	1479.444	905.377	-250.572	1466.463	879.591	-176.757	1472.708	883.470	-327.007	1442.655	469.947	-134.195	1432.046	461.121	-352.935	1406.398	69.781	-130.628	1383.697	71.087	-363.231	1565.796	959.681	-245.865	1560.845	956.606	-126.761	1570.747	962.757	-364.969	1381.550	1017.800	-220.298	1387.851	1016.877	-305.895	1452.052	475.583	-74.695	1440.268	463.974	-412.301	1427.237	476.049	-182.575	1427.103	465.971	-301.883	1391.070	71.518	-91.564	1365.014	74.362	-399.579	1415.580	83.170	-157.928	1390.814	83.193	-338.256	1342.801	42.641	-143.981	1317.617	42.996	-352.138	1487.384	1370.162	-234.231	1569.790	1206.733	-244.715	1374.724	1436.733	-239.328	1498.048	1359.391	-181.853	1511.284	1365.183	-289.028	1525.606	39.367	-99.675	1500.516	41.173	-401.761	1506.428	591.307	-9.472	1596.347	552.982	-341.472	1522.410	650.805	-82.282	1535.143	618.786	-381.384	1513.712	563.502	-96.925	1508.628	535.673	-385.392	1417.826	204.949	-5.516	1405.957	211.913	-479.392	1405.974	171.798	-78.141	1385.276	173.577	-410.542
	17	0.14167	1479.260	905.238	-250.632	1466.470	879.612	-176.766	1472.746	883.462	-327.015	1442.673	469.952	-134.157	1431.938	461.126	-352.920	1406.376	69.770	-130.606	1383.670	71.096	-363.218	1565.797	959.713	-245.869	1560.821	956.660	-126.738	1570.774	962.765	-365.001	1381.510	1017.790	-220.273	1387.827	1016.867	-306.027	1452.117	475.591	-74.666	1440.200	463.969	-412.281	1426.862	476.207	-182.334	1427.155	465.812	-302.146	1391.078	71.504	-91.529	1365.012	74.365	-399.580	1415.604	83.146	-157.881	1390.833	83.111	-338.311	1342.800	42.644	-143.988	1317.635	43.002	-352.155	1487.361	1370.234	-234.232	1569.780	1206.823	-244.902	1374.748	1436.763	-239.200	1498.049	1359.416	-181.812	1511.239	1365.308	-289.104	1525.599	39.401	-99.653	1500.529	41.170	-401.767	1506.425	591.352	-9.513	1596.363	553.006	-341.507	1522.392	650.802	-82.287	1535.104	618.723	-381.414	1513.574	563.689	-96.830	1508.712	535.740	-385.517	1417.872	204.981	-5.523	1405.952	211.890	-479.413	1406.119	171.811	-78.160	1385.330	173.583	-410.488
	18	0.15000	1479.123	905.152	-250.687	1466.478	879.633	-176.773	1472.779	883.454	-327.022	1442.693	469.943	-134.125	1431.859	461.136	-352.908	1406.353	69.750	-130.587	1383.655	71.105	-363.210	1565.800	959.741	-245.876	1560.804	956.711	-126.723	1570.797	962.771	-365.028	1381.461	1017.790	-220.260	1387.803	1016.860	-306.177	1452.179	475.585	-74.640	1440.151	463.971	-412.265	1426.714	476.148	-182.102	1426.918	465.623	-302.183	1391.082	71.483	-91.500	1365.015	74.369	-399.582	1415.543	83.237	-157.869	1390.876	83.122	-338.365	1342.799	42.640	-143.989	1317.648	42.999	-352.169	1487.304	1370.256	-234.198	1569.632	1206.789	-244.712	1374.726	1436.824	-239.129	1498.051	1359.515	-181.849	1511.111	1365.232	-289.012	1525.604	39.430	-99.611	1500.541	41.163	-401.775	1506.424	591.382	-9.546	1596.385	553.031	-341.546	1522.401	650.848	-82.368	1535.027	618.572	-381.353	1513.520	563.697	-96.778	1508.464	535.463	-385.546	1417.908	205.007	-5.527	1405.964	211.880	-479.423	1406.249	172.066	-78.099	1385.254	173.701	-410.367
	19	0.15833	1479.150	905.215	-250.738	1466.484	879.652	-176.780	1472.803	883.447	-327.028	1442.719	469.927	-134.102	1431.830	461.149	-352.904	1406.333	69.727	-130.573	1383.655	71.114	-363.208	1565.801	959.764	-245.884	1560.790	956.755	-126.722	1570.813	962.774	-365.046	1381.405	1017.796	-220.265	1387.775	1016.859	-306.334	1452.237	475.570	-74.623	1440.134	463.980	-412.259	1426.755	476.040	-182.112	1426.837	465.848	-301.930	1391.083	71.459	-91.478	1365.023	74.376	-399.585	1415.477	83.308	-157.873	1390.935	83.188	-338.394	1342.797	42.631	-143.983	1317.653	42.991	-352.179	1487.244	1370.328	-234.174	1569.557	1206.833	-244.372	1374.712	1436.859	-239.139	1498.051	1359.717	-181.942	1510.988	1365.167	-288.862	1525.617	39.450	-99.561	1500.549	41.153	-401.783	1506.425	591.396	-9.570	1596.416	553.055	-341.587	1522.423	650.871	-82.471	1535.171	618.617	-381.390	1513.537	563.593	-96.842	1508.389	535.334	-385.465	1417.931	205.022	-5.533	1405.989	211.882	-479.420	1406.137	172.058	-78.098	1385.208	173.810	-410.304
	20	0.16667	1479.223	905.323	-250.798	1466.484	879.668	-176.791	1472.818	883.441	-327.039	1442.756	469.909	-134.094	1431.853	461.166	-352.912	1406.322	69.704	-130.561	1383.668	71.125	-363.215	1565.798	959.783	-245.898	1560.775	956.791	-126.741	1570.821	962.775	-365.054	1381.347	1017.802	-220.293	1387.745	1016.862	-306.486	1452.292	475.554	-74.617	1440.151	463.997	-412.268	1426.800	475.912	-182.018	1427.012	466.002	-301.802	1391.084	71.436	-91.461	1365.033	74.388	-399.589	1415.519	83.213	-157.864	1390.942	83.207	-338.366	1342.793	42.619	-143.972	1317.652	42.986	-352.187	1487.156	1370.403	-234.205	1569.374	1206.858	-244.360	1374.703	1436.965	-239.131	1497.985	1359.813	-182.030	1510.868	1365.200	-288.845	1525.637	39.458	-99.517	1500.555	41.144	-401.790	1506.428	591.397	-9.585	1596.453	553.076	-341.622	1522.390	650.854	-82.507	1535.270	618.755	-381.458	1513.547	563.571	-96.816	1508.506	535.401	-385.434	1417.940	205.024	-5.539	1406.020	211.890	-479.406	1405.905	171.782	-78.164	1385.226	173.826	-410.380
	21	0.17500	1479.227	905.369	-250.866	1466.481	879.681	-176.813	1472.829	883.437	-327.061	1442.809	469.896	-134.102	1431.917	461.184	-352.932	1406.323	69.682	-130.548	1383.691	71.137	-363.228	1565.791	959.800	-245.920	1560.758	956.823	-126.783	1570.825	962.778	-365.056	1381.289	1017.805	-220.346	1387.715	1016.867	-306.618	1452.347	475.544	-74.626	1440.195	464.018	-412.290	1426.798	475.851	-181.844	1427.097	465.759	-301.901	1391.086	71.418	-91.448	1365.043	74.402	-399.596	1415.603	83.082	-157.863	1390.850	83.269	-338.276	1342.790	42.603	-143.954	1317.647	42.986	-352.191	1487.027	1370.366	-234.267	1569.088	1206.747	-244.503	1374.675	1437.005	-239.072	1497.863	1359.749	-182.055	1510.716	1365.159	-288.961	1525.659	39.456	-99.487	1500.556	41.137	-401.794	1506.436	591.388	-9.594	1596.490	553.090	-341.647	1522.389	650.838	-82.480	1535.130	618.747	-381.414	1513.553	563.611	-96.709	1508.468	535.364	-385.483	1417.940	205.015	-5.548	1406.048	211.899	-479.388	1405.921	171.643	-78.188	1385.326	173.880	-410.460
	22	0.18333	1479.298	905.471	-250.917	1466.477	879.697	-176.850	1472.844	883.437	-327.098	1442.877	469.890	-134.128	1432.000	461.200	-352.960	1406.337	69.663	-130.532	1383.717	71.148	-363.245	1565.784	959.823	-245.953	1560.738	956.858	-126.849	1570.831	962.788	-365.057	1381.231	1017.806	-220.420	1387.693	1016.872	-306.721	1452.402	475.542	-74.650	1440.251	464.038	-412.322	1426.740	476.111	-182.123	1426.995	465.487	-302.118	1391.092	71.407	-91.435	1365.052	74.417	-399.604	1415.607	83.085	-157.885	1390.727	83.326	-338.196	1342.787	42.586	-143.932	1317.640	42.989	-352.191	1486.951	1370.259	-234.327	1568.985	1206.625	-244.528	1374.698	1436.851	-239.050	1497.808	1359.663	-182.072	1510.616	1365.025	-289.075	1525.679	39.447	-99.473	1500.550	41.131	-401.798	1506.447	591.376	-9.599	1596.526	553.100	-341.664	1522.455	650.872	-82.459	1534.957	618.621	-381.334	1513.551	563.653	-96.837	1508.338	535.339	-385.573	1417.937	204.999	-5.557	1406.065	211.907	-479.373	1406.160	171.659	-78.140	1385.498	173.875	-410.443
	23	0.19167	1479.328	905.536	-250.944	1466.478	879.716	-176.907	1472.870	883.443	-327.155	1442.956	469.890	-134.170	1432.075	461.214	-352.991	1406.363	69.648	-130.510	1383.738	71.157	-363.261	1565.781	959.857	-246.001	1560.716	956.903	-126.937	1570.845	962.811	-365.065	1381.170	1017.806	-220.510	1387.679	1016.875	-306.795	1452.457	475.548	-74.689	1440.299	464.052	-412.357	1427.011	476.261	-182.762	1426.931	465.519	-302.162	1391.101	71.401	-91.421	1365.058	74.429	-399.611	1415.539	83.132	-157.867	1390.684	83.263	-338.145	1342.785	42.566	-143.905	1317.631	42.992	-352.186	1486.882	1370.200	-234.402	1568.929	1206.568	-244.552	1374.793	1436.681	-239.103	1497.750	1359.626	-182.157	1510.538	1364.946	-289.139	1525.696	39.434	-99.465	1500.539	41.128	-401.802	1506.463	591.361	-9.602	1596.564	553.110	-341.681	1522.455	650.872	-82.459	1534.954	618.636	-381.344	1513.650	563.572	-97.141	1508.289	535.356	-385.609	1417.939	204.981	-5.566	1406.068	211.915	-479.369	1406.189	171.679	-78.119	1385.569	173.798	-410.434
